<?xml version="1.0" encoding="iso-8859-1"?>
<!-- Generator: Adobe Illustrator 19.0.0, SVG Export Plug-In . SVG Version: 6.00 Build 0)  -->
<svg version="1.1" id="Capa_1"
  xmlns="http://www.w3.org/2000/svg"
  xmlns:xlink="http://www.w3.org/1999/xlink" x="0px" y="0px" viewBox="0 0 512 512" style="enable-background:new 0 0 512 512;" xml:space="preserve">
  <path style="fill:#FF4A4A;" d="M438.571,141.007L186.89,32.872c-2.318-0.996-4.982-0.76-7.09,0.627
	c-2.107,1.389-3.376,3.743-3.376,6.267v216.27c0,2.523,1.269,4.878,3.376,6.267c1.245,0.818,2.682,1.237,4.128,1.237
	c1.003,0,2.012-0.201,2.961-0.609l251.68-108.134c2.755-1.185,4.541-3.895,4.541-6.894
	C443.112,144.902,441.326,142.192,438.571,141.007z"/>
  <path style="fill:#E7343F;" d="M210.941,43.205L186.89,32.872c-2.318-0.996-4.982-0.76-7.09,0.627
	c-2.107,1.389-3.376,3.743-3.376,6.267v216.27c0,2.523,1.269,4.878,3.376,6.267c1.245,0.818,2.682,1.237,4.128,1.237
	c1.003,0,2.012-0.201,2.961-0.609l24.051-10.334V43.205H210.941z"/>
  <path style="fill:#FFDB56;" d="M165.671,0c-14.022,0-25.429,11.408-25.429,25.43v440.361c0,4.144,3.36,7.503,7.503,7.503h35.853
	c4.144,0,7.503-3.359,7.503-7.503V25.43C191.1,11.408,179.692,0,165.671,0z"/>
  <path style="fill:#FFBB24;" d="M165.671,473.295h17.927c4.144,0,7.503-3.359,7.503-7.503V25.43C191.1,11.408,179.692,0,165.671,0
	l0,0V473.295z"/>
  <path style="fill:#F77935;" d="M262.259,502.817c-6.02-26.218-28.81-44.529-55.421-44.529h-82.336
	c-26.612,0-49.401,18.311-55.422,44.529c-0.511,2.228,0.021,4.567,1.444,6.355c1.424,1.787,3.584,2.828,5.87,2.828h178.552
	c2.285,0,4.446-1.041,5.87-2.828C262.239,507.383,262.771,505.044,262.259,502.817z"/>
  <path style="fill:#EA5A21;" d="M262.259,502.817c-6.02-26.218-28.81-44.529-55.421-44.529h-54.067
	c26.611,0,49.401,18.311,55.421,44.529c0.511,2.228-0.02,4.567-1.444,6.355c-1.424,1.787-3.585,2.828-5.87,2.828h54.067
	c2.285,0,4.446-1.041,5.87-2.828C262.239,507.383,262.771,505.044,262.259,502.817z"/>
  <g>
  </g>
  <g>
  </g>
  <g>
  </g>
  <g>
  </g>
  <g>
  </g>
  <g>
  </g>
  <g>
  </g>
  <g>
  </g>
  <g>
  </g>
  <g>
  </g>
  <g>
  </g>
  <g>
  </g>
  <g>
  </g>
  <g>
  </g>
  <g>
  </g>
</svg>
