<?xml version="1.0" encoding="iso-8859-1"?>
<!-- Generator: Adobe Illustrator 21.0.0, SVG Export Plug-In . SVG Version: 6.00 Build 0)  -->
<svg xmlns="http://www.w3.org/2000/svg" xmlns:xlink="http://www.w3.org/1999/xlink" version="1.1" id="Capa_1" x="0px" y="0px" viewBox="0 0 512 512" style="enable-background:new 0 0 512 512;" xml:space="preserve" width="512" height="512">
<g>
	<path style="fill:#E8F6FC;" d="M368,383H15c-8.284,0-15-6.716-15-15V25.986C0,11.657,11.657,0,25.986,0h331.028   C371.343,0,383,11.657,383,25.986V368C383,376.284,376.284,383,368,383z"/>
	<path style="fill:#CEE2E9;" d="M357.014,0H191.438v383H368c8.284,0,15-6.716,15-15V25.986C383,11.657,371.343,0,357.014,0z"/>
	<path style="fill:#212CBB;" d="M357.014,0H25.986C11.657,0,0,11.657,0,25.986V82h383V25.986C383,11.657,371.343,0,357.014,0z"/>
	<path style="fill:#00215A;" d="M357.014,0H191.438v82H383V25.986C383,11.657,371.343,0,357.014,0z"/>
	<path style="fill:#00EED1;" d="M103.589,329.904H45c-8.284,0-15-6.716-15-15v-54.927c0-8.284,6.716-15,15-15h58.589   c8.284,0,15,6.716,15,15v54.927C118.589,323.188,111.873,329.904,103.589,329.904z"/>
	<path style="fill:#93C0FF;" d="M173.29,280.103h-11.816c-8.284,0-15-6.716-15-15s6.716-15,15-15h11.816c8.284,0,15,6.716,15,15   S181.574,280.103,173.29,280.103z"/>
	<path style="fill:#93C0FF;" d="M211,324.778h-49.526c-8.284,0-15-6.716-15-15s6.716-15,15-15H211c8.284,0,15,6.716,15,15   S219.284,324.778,211,324.778z"/>
	<path style="fill:#00EED1;" d="M103.589,210.529H45c-8.284,0-15-6.716-15-15v-54.928c0-8.284,6.716-15,15-15h58.589   c8.284,0,15,6.716,15,15v54.928C118.589,203.813,111.873,210.529,103.589,210.529z"/>
	<path style="fill:#93C0FF;" d="M282,160.727H161.473c-8.284,0-15-6.716-15-15s6.716-15,15-15H282c8.284,0,15,6.716,15,15   S290.284,160.727,282,160.727z"/>
	<path style="fill:#93C0FF;" d="M174,205.402h-12.526c-8.284,0-15-6.716-15-15s6.716-15,15-15H174c8.284,0,15,6.716,15,15   S182.284,205.402,174,205.402z"/>
	<path style="fill-rule:evenodd;clip-rule:evenodd;fill:#A50043;" d="M342.014,51.986c6.051,0,10.986-4.934,10.986-10.985   c0-6.051-4.935-10.986-10.986-10.986c-6.051,0-10.986,4.935-10.986,10.986C331.029,47.051,335.964,51.986,342.014,51.986z"/>
	<path style="fill-rule:evenodd;clip-rule:evenodd;fill:#00CCB3;" d="M298.072,51.986c6.051,0,10.986-4.934,10.986-10.985   c0-6.051-4.935-10.986-10.986-10.986c-6.051,0-10.986,4.935-10.986,10.986C287.086,47.051,292.021,51.986,298.072,51.986z"/>
	<path style="fill:#EBB100;" d="M254.13,51.986c6.051,0,10.986-4.934,10.986-10.985c0-6.051-4.935-10.986-10.986-10.986   c-6.051,0-10.986,4.935-10.986,10.986C243.145,47.051,248.079,51.986,254.13,51.986z"/>
	<path style="fill:#0095FF;" d="M511.23,246.961c-1.81-5.784-6.49-9.627-11.726-9.627H266.246c-5.234,0-9.913,3.84-11.724,9.622   c-1.811,5.782-0.37,12.28,3.61,16.28c26.601,26.737,89.344,96.627,89.344,96.627v137.426c0,5.408,2.52,10.379,6.561,12.947   c1.857,1.18,3.898,1.765,5.934,1.765c2.395,0,4.785-0.81,6.86-2.415l45.804-35.413c3.518-2.72,5.637-7.343,5.637-12.298V359.838   c0,0,66.589-73.765,89.337-96.595C511.595,259.244,513.039,252.744,511.23,246.961z"/>
	<path style="fill:#0063E5;" d="M511.23,246.961c-1.81-5.784-6.49-9.627-11.726-9.627H383v259.752l29.636-22.913   c3.518-2.72,5.637-7.343,5.637-12.298V359.838c0,0,66.589-73.765,89.337-96.595C511.595,259.244,513.039,252.744,511.23,246.961z"/>
	<path style="fill:#93C0FF;" d="M499.504,264.465H266.246c-6.901,0-12.496-5.247-12.496-11.72V208.22   c0-6.473,5.595-11.72,12.496-11.72h233.258c6.901,0,12.496,5.247,12.496,11.72v44.525C512,259.218,506.405,264.465,499.504,264.465   z"/>
	<path style="fill:#0095FF;" d="M282,130.727h-90.562v30H282c8.284,0,15-6.716,15-15S290.284,130.727,282,130.727z"/>
	<path style="fill:#0095FF;" d="M211,294.778h-19.563v30H211c8.284,0,15-6.716,15-15S219.284,294.778,211,294.778z"/>
	<path style="fill:#0095FF;" d="M499.504,196.5H383v67.965h116.504c6.901,0,12.496-5.247,12.496-11.72V208.22   C512,201.747,506.405,196.5,499.504,196.5z"/>
</g>















</svg>
