<!--Icons made by<a href="https://www.flaticon.com/authors/freepik" title="Freepik">Freepik</a> from <a href="https://www.flaticon.com/" title="Flaticon"> www.flaticon.com</a>-->
<svg height="512pt" viewBox="0 -121 512 512" width="512pt"
  xmlns="http://www.w3.org/2000/svg">
  <path d="m97.394531 209.230469c-37.742187-3.875-67.394531-35.480469-67.394531-74.230469s29.652344-70.355469 67.394531-74.230469l10.550781-21.832031-29.8125-4.898438c-44.851562 11.894532-78.132812 52.414063-78.132812 100.960938s33.28125 89.070312 78.136719 100.964844l29.835937-4.929688zm0 0" fill="#e0f4ff"/>
  <path d="m433.851562 34.035156-29.824218 19.914063 10.578125 6.820312c37.742187 3.875 67.394531 35.480469 67.394531 74.230469s-29.652344 70.355469-67.394531 74.230469l-10.550781 21.832031 29.8125 4.898438c44.851562-11.894532 78.132812-52.414063 78.132812-100.960938 0-48.550781-33.289062-89.078125-78.148438-100.964844zm0 0" fill="#bbdcff"/>
  <path d="m392 135c0 42.898438 20.398438 71.398438 42 101.101562-80.101562 21-111.699219 33.898438-178 33.898438-69.601562 0-110.199219-16.199219-178-33.898438 18.300781-24.601562 42-56.703124 42-101.101562 0-42.898438-20.097656-71.398438-42-101.101562 80.101562-21 111.699219-33.898438 178-33.898438 69.601562 0 110.199219 16.199219 178 33.898438-18 24.902343-42 56.402343-42 101.101562zm0 0" fill="#7ed8f6"/>
  <g fill="#6aa9ff">
    <path d="m392 135c0 42.898438 20.398438 71.398438 42 101.101562-80.101562 21-111.699219 33.898438-178 33.898438v-270c69.601562 0 110.199219 16.199219 178 33.898438-18 24.902343-42 56.402343-42 101.101562zm0 0"/>
    <path d="m211 60h91v30h-91zm0 0"/>
    <path d="m181 120h151v30h-151zm0 0"/>
    <path d="m211 180h91v30h-91zm0 0"/>
  </g>
  <path d="m256 60h46v30h-46zm0 0" fill="#4895ff"/>
  <path d="m256 180h46v30h-46zm0 0" fill="#4895ff"/>
  <path d="m256 120h76v30h-76zm0 0" fill="#4895ff"/>
</svg>
