<?xml version="1.0" encoding="iso-8859-1"?>
<!-- Generator: Adobe Illustrator 19.0.0, SVG Export Plug-In . SVG Version: 6.00 Build 0)  -->
<svg version="1.1" id="Capa_1"
  xmlns="http://www.w3.org/2000/svg"
  xmlns:xlink="http://www.w3.org/1999/xlink" x="0px" y="0px" viewBox="0 0 511.999 511.999" style="enable-background:new 0 0 511.999 511.999;" xml:space="preserve">
  <path style="fill:#FFDB56;" d="M398.321,360.286C360.184,344.743,309.64,336.184,256,336.184s-104.185,8.559-142.322,24.102
	C73.402,376.7,51.22,399.36,51.22,424.091c0,24.732,22.18,47.393,62.456,63.807c38.137,15.542,88.681,24.101,142.321,24.101
	s104.184-8.559,142.321-24.101c40.276-16.414,62.457-39.074,62.457-63.807C460.778,399.36,438.596,376.7,398.321,360.286z"/>
  <path style="fill:#FFBB24;" d="M398.321,453.112C360.184,468.654,309.64,477.213,256,477.213s-104.185-8.559-142.321-24.101
	c-30.608-12.473-50.752-28.556-58.666-46.414c-2.5,5.64-3.791,11.456-3.791,17.393c0,24.732,22.18,47.393,62.456,63.807
	C151.816,503.44,202.36,511.999,256,511.999s104.184-8.559,142.321-24.101c40.276-16.414,62.457-39.074,62.457-63.807
	c0-5.937-1.292-11.753-3.791-17.393C449.073,424.556,428.928,440.639,398.321,453.112z"/>
  <path style="fill:#FF4A4A;" d="M330.495,122.101c-9.087-9.746-21.649-15.647-34.88-16.511
	c12.634-11.053,20.637-27.273,20.637-45.339C316.251,27.029,289.222,0,255.999,0s-60.251,27.029-60.251,60.251
	c0,18.065,8.003,34.286,20.637,45.339c-13.231,0.864-25.792,6.765-34.879,16.51c-9.857,10.57-14.931,24.903-13.923,39.321
	l7.971,113.905c1.057,15.109,13.069,27.136,27.897,28.49l12.146,116.37c0.4,3.829,3.628,6.737,7.478,6.737h65.854
	c3.85,0,7.078-2.908,7.478-6.737l12.145-116.369c14.827-1.355,26.838-13.382,27.896-28.491l7.97-113.905
	C345.425,147.004,340.351,132.672,330.495,122.101z"/>
  <path style="fill:#E7343F;" d="M330.495,122.101c-9.087-9.746-21.649-15.647-34.88-16.511c13.586-11.886,21.818-29.75,20.498-49.456
	c-2.045-30.564-27.225-54.958-57.837-56.092c-7.045-0.261-13.837,0.695-20.182,2.673c24.508,7.642,42.347,30.545,42.347,57.536
	c0,13.909-4.744,26.724-12.693,36.929c-2.892,3.713-1.089,9.102,3.426,10.431c8.913,2.624,17.081,7.594,23.51,14.489
	c9.856,10.571,14.931,24.903,13.922,39.32l-7.97,113.905c-0.781,11.163-7.542,20.644-17,25.381
	c-6.98,3.496-11.653,10.358-12.463,18.124l-10.578,101.357c-0.4,3.829-3.628,6.737-7.478,6.737h35.81
	c3.85,0,7.078-2.908,7.478-6.737l12.146-116.37c14.827-1.355,26.838-13.382,27.896-28.491l7.97-113.905
	C345.425,147.004,340.351,132.672,330.495,122.101z"/>
  <g>
  </g>
  <g>
  </g>
  <g>
  </g>
  <g>
  </g>
  <g>
  </g>
  <g>
  </g>
  <g>
  </g>
  <g>
  </g>
  <g>
  </g>
  <g>
  </g>
  <g>
  </g>
  <g>
  </g>
  <g>
  </g>
  <g>
  </g>
  <g>
  </g>
</svg>
