<svg height="512" viewBox="0 0 64 64" width="512"
  xmlns="http://www.w3.org/2000/svg">
  <g id="Hospital">
    <ellipse cx="32" cy="56" fill="#ffcd00" rx="18" ry="5"/>
    <path d="m53 24c0 7.8-9.5 20.03-15.72 27.21-3.03 3.49-5.28 5.79-5.28 5.79s-2.25-2.3-5.28-5.79c-6.22-7.18-15.72-19.41-15.72-27.21a21 21 0 0 1 42 0z" fill="#006df0"/>
    <circle cx="32" cy="24" fill="#d1e7f8" r="16"/>
    <path d="m48 24a15.98 15.98 0 0 1 -26.735 11.839q-2.214 1.242-4.533 2.309a122.307 122.307 0 0 0 9.988 13.062c3.03 3.49 5.28 5.79 5.28 5.79s2.25-2.3 5.28-5.79c6.22-7.18 15.72-19.41 15.72-27.21a20.928 20.928 0 0 0 -6.073-14.765q-1.206 2.343-2.592 4.575a15.932 15.932 0 0 1 3.665 10.19z" fill="#005ece"/>
    <path d="m48 24a15.932 15.932 0 0 0 -3.665-10.19 64.29 64.29 0 0 1 -23.07 22.029 15.98 15.98 0 0 0 26.735-11.839z" fill="#b7cad9"/>
    <path d="m42 21v6h-7v7h-6v-7h-7v-6h7v-7h6v7z" fill="#ed1c24"/>
  </g>
</svg>
